<?xml version="1.0" encoding="UTF-8"?><svg id="Layer_1" xmlns="http://www.w3.org/2000/svg" xmlns:xlink="http://www.w3.org/1999/xlink" viewBox="0 0 496 82"><defs><style>.cls-1{fill:none;}.cls-1,.cls-2{stroke-width:0px;}.cls-2{fill:#5c0fd9;}.cls-3{clip-path:url(#clippath);}</style><clipPath id="clippath"><rect class="cls-1" x="-.43" y="-.31" width="496" height="83.8"/></clipPath></defs><g class="cls-3"><path class="cls-2" d="M439.16-.31c-2.35,0-4.61.93-6.27,2.6-1.66,1.66-2.6,3.92-2.6,6.27s.94,4.61,2.6,6.27c1.66,1.66,3.92,2.6,6.27,2.6,1.19.04,2.37-.17,3.48-.6,1.11-.43,2.12-1.08,2.97-1.9.85-.83,1.53-1.82,1.99-2.91.46-1.09.7-2.27.7-3.46,0-1.19-.24-2.36-.7-3.46-.46-1.09-1.14-2.09-1.99-2.91-.85-.83-1.86-1.48-2.97-1.91-1.11-.43-2.29-.63-3.48-.6M204.99,72.01c0,7.42,13.07,11.27,23.66,11.27,13.84,0,25.23-6.54,25.23-18.25,0-8.67-4.38-13.75-14.97-16.33l-11.83-2.96c-2.96-.8-4.73-2.04-4.73-4.85s2.81-4.41,8.22-4.41c6.33.08,12.5,2,17.75,5.53,2.08-2,3.4-4.67,3.73-7.54,0-6.3-10.35-10.03-21.74-10.03-12.16,0-23.31,6.09-23.31,17.75,0,8.87,4.41,14.29,14.32,16.53l12.16,2.96c3.13.65,4.94,2.01,4.94,4.61,0,3.25-2.69,4.94-9.23,4.94-7.42-.25-14.61-2.63-20.7-6.86-2.1,2-3.35,4.73-3.49,7.63M431.83,36.25c.02-2.77,1.12-5.43,3.08-7.39s4.61-3.07,7.39-3.08h3.82v56.2h-12.6c-.23.03-.46.02-.68-.06-.22-.07-.42-.2-.59-.36s-.29-.36-.36-.59c-.07-.22-.09-.45-.06-.68v-44.04ZM458.18,36.25v44.1c-.04.23-.02.46.06.68.07.22.19.42.36.59.16.16.36.29.59.36.22.07.45.09.68.06h12.6v-28.04c-.12-1.98.16-3.97.83-5.84.67-1.87,1.72-3.58,3.08-5.03,1.36-1.45,3.01-2.6,4.83-3.39,1.82-.79,3.79-1.19,5.78-1.19,2.19-.11,4.37.23,6.42,1.01,1.26-2.48,2-5.2,2.16-7.99,0-3.37-1.81-6.54-7.9-6.54s-11.83,3.85-15.2,11.83v-11.15h-3.82c-1.39-.08-2.79.13-4.1.63-1.31.5-2.49,1.27-3.48,2.26-.99.99-1.75,2.18-2.25,3.49-.49,1.31-.71,2.7-.62,4.1l-.03.06ZM48.7,12.94l26.62,69.16h-15.11c-.55.05-1.1-.1-1.54-.44-.44-.33-.73-.82-.83-1.37l-21.06-57.62-11.27,30.64h7.34c6.74,0,9.35,2.57,10.91,6.74l1.92,5.09c.44,1.12,0,1.89-1.12,1.89h-24.11l-5.41,15H1.08c-.24.03-.48,0-.71-.1-.22-.1-.41-.25-.55-.45-.14-.2-.22-.43-.24-.67-.02-.24.03-.48.14-.7L24.62,15.04c2.57-6.74,5.92-8.87,11.83-8.87h12.39c.89,0,1.21.47,1.21,1.03,0,1.24-1.78,1.57-1.78,3.49.02.75.17,1.49.44,2.19l-.03.06ZM116.25,27.73c.4-.7.99-1.27,1.72-1.63.72-.36,1.54-.49,2.34-.38h16.33l-24.11,26.92,24.67,29.4h-16.74c-.8.1-1.62-.04-2.34-.4-.72-.36-1.32-.93-1.71-1.64l-18.49-22.63v24.67h-12.6c-.23.04-.46.02-.68-.06-.22-.07-.42-.2-.59-.36-.16-.16-.29-.36-.36-.59-.07-.22-.09-.45-.06-.68V13.21c.02-2.77,1.12-5.43,3.08-7.39,1.96-1.96,4.62-3.07,7.39-3.08h3.82v45.73l18.34-20.73ZM182.51,80.35c-.03.23-.02.46.06.68.07.22.19.42.36.59.16.16.36.29.59.36.22.07.45.09.68.06h12.6V25.84h-3.82c-2.51-.12-4.97.74-6.86,2.4-1.89,1.65-3.07,3.97-3.29,6.48-3.7-6.77-10.91-10.03-19.46-10.03-14.79,0-27.48,11.83-27.48,30.17s9.23,28.63,25.67,28.63c11.83,0,16.77-5.41,16.77-10.71.07-1.07-.11-2.15-.52-3.14-.41-.99-1.04-1.88-1.85-2.59-1.41,1.29-3.06,2.28-4.86,2.91s-3.71.9-5.61.79c-7.42,0-14.08-4.17-14.08-15.88s7.66-16.65,15.65-16.65c10.26,0,15.44,6.66,15.44,16.33v25.82ZM396.93,12.88l26.62,69.16h-15.2c-.55.05-1.1-.1-1.54-.44-.44-.34-.73-.82-.83-1.37l-21.06-57.56-11.27,30.64h7.33c6.74,0,9.35,2.57,10.92,6.74l1.92,5.09c.44,1.12,0,1.89-1.15,1.89h-24.08l-5.41,15h-13.96c-.24.03-.49,0-.71-.1-.22-.1-.41-.25-.55-.45-.14-.2-.22-.43-.24-.67-.02-.24.03-.48.14-.7l24.91-65.07c2.57-6.74,5.92-8.87,11.83-8.87h12.36c.92,0,1.24.47,1.24,1.03,0,1.24-1.8,1.57-1.8,3.49.06.75.24,1.49.53,2.19M307.07,80.35c-.04.23-.02.46.06.68.07.22.2.42.36.59.16.16.36.29.59.36.22.07.45.09.68.06h12.63V25.84h-3.85c-2.51-.12-4.97.74-6.86,2.4-1.89,1.65-3.07,3.97-3.29,6.48-3.7-6.77-10.92-10.03-19.46-10.03-14.64,0-27.48,11.83-27.48,30.17s9.23,28.63,25.67,28.63c11.83,0,16.77-5.41,16.77-10.71.07-1.07-.11-2.15-.52-3.14-.41-.99-1.04-1.88-1.85-2.59-1.41,1.29-3.06,2.28-4.86,2.91-1.8.63-3.71.9-5.61.79-7.42,0-14.08-4.17-14.08-15.88s7.66-16.65,15.65-16.65c10.26,0,15.44,6.66,15.44,16.33v25.82Z"/></g></svg>