<?xml version="1.0" encoding="UTF-8"?>
<svg id="Layer_1" data-name="Layer 1" xmlns="http://www.w3.org/2000/svg" version="1.1" viewBox="0 0 496 105">
  <defs>
    <style>
      .cls-1 {
        fill: #000;
        stroke-width: 0px;
      }
    </style>
  </defs>
  <path class="cls-1" d="M4.64,33.43c0-3.24.11-6.44.33-9.62.22-3.17.75-6.35,1.57-9.52.38-1.52.86-3.01,1.43-4.48.57-1.46,1.3-2.86,2.19-4.19.89-1.27,1.9-2.29,3.05-3.05,1.14-.76,2.54-1.24,4.19-1.43,1.71-.19,3.44-.41,5.19-.67,1.75-.25,3.48-.44,5.19-.57,2.79-.19,5.54-.21,8.24-.05,2.7.16,5.38.59,8.05,1.29,2.22.51,4.29,1.37,6.19,2.57.63.38,1.22.81,1.76,1.29.54.48,1.03,1.06,1.48,1.76,1.65,2.6,1.49,4.99-.48,7.14-.7.83-1.49,1.49-2.38,2-.89.51-1.81.95-2.76,1.33-2.22.95-4.49,1.68-6.81,2.19-2.32.51-4.65.92-7,1.24-1.33.13-2.65.25-3.95.38-1.3.13-2.59.25-3.86.38-.57.06-1,.19-1.29.38-.29.19-.43.64-.43,1.33.13.95.19,1.92.19,2.9v3c0,1.02.51,1.52,1.52,1.52,1.21-.06,2.4-.06,3.57,0,1.17.06,2.37.25,3.57.57.95.19,1.89.46,2.81.81.92.35,1.79.81,2.62,1.38,1.71,1.27,2.6,2.78,2.67,4.52.06,1.75-.73,3.25-2.38,4.52-1.27,1.02-2.62,1.71-4.05,2.1s-2.87.67-4.33.86c-1.59.32-3.02.48-4.29.48-.7-.06-1.14.06-1.33.38-.19.32-.29.76-.29,1.33,0,3.81-.1,7.68-.29,11.62-.06,1.52-.18,3.03-.33,4.52-.16,1.49-.49,2.97-1,4.43-.32.76-.65,1.48-1,2.14-.35.67-.81,1.32-1.38,1.95-1.27,1.27-2.63,1.98-4.1,2.14-1.46.16-2.92-.3-4.38-1.38-.95-.7-1.73-1.49-2.33-2.38-.61-.89-1.13-1.87-1.57-2.95-.7-1.65-1.21-3.35-1.52-5.1-.32-1.75-.54-3.51-.67-5.29-.32-4-.67-7.97-1.05-11.9-.38-3.94-.57-7.9-.57-11.9Z"/>
  <path class="cls-1" d="M65.68,28.76c.51-.25.94-.56,1.29-.9.35-.35.68-.68,1-1,1.84-1.65,3.76-2.98,5.76-4,2-1.01,4.27-1.46,6.81-1.33,2.48.13,4.57.98,6.29,2.57,1.71,1.59,2.7,3.59,2.95,6,.51,4.38-.51,8.35-3.05,11.9-.25.32-.49.64-.71.95-.22.32-.49.6-.81.86-2.03,1.84-4.1,2.64-6.19,2.38-2.09-.25-3.84-1.56-5.24-3.9-.19-.32-.37-.67-.52-1.05-.16-.38-.37-.73-.62-1.05-.83-1.4-2.03-1.87-3.62-1.43-.83.25-1.4.6-1.71,1.05-.32.44-.45,1.14-.38,2.1.32,4.95.41,9.94.29,14.95,0,3.37-.32,6.51-.95,9.43-.19,1.08-.51,2.13-.95,3.14-.45,1.02-1.08,1.94-1.91,2.76-1.65,1.84-3.51,2.67-5.57,2.48-2.06-.19-3.76-1.3-5.1-3.33-.95-1.52-1.63-3.13-2.05-4.81-.41-1.68-.75-3.38-1-5.1-.38-2.54-.54-5.08-.48-7.62.06-2.54.03-5.08-.1-7.62-.13-2.67-.18-5.29-.14-7.86.03-2.57.27-5.16.71-7.76.25-1.46.57-2.89.95-4.29.38-1.4.89-2.76,1.52-4.1.38-.76.81-1.49,1.29-2.19.48-.7,1.03-1.3,1.67-1.81,1.21-1.02,2.41-1.48,3.62-1.38,1.21.1,2.29.75,3.24,1.95.63.7,1.13,1.48,1.48,2.33.35.86.65,1.73.9,2.62.25.76.48,1.56.67,2.38.19.83.41,1.71.67,2.67Z"/>
  <path class="cls-1" d="M132.16,48.38c0,3.62-.56,6.97-1.67,10.05-1.11,3.08-2.62,5.78-4.52,8.1-1.9,2.32-4.13,4.18-6.67,5.57-2.54,1.4-5.3,2.25-8.29,2.57-1.08.13-2.1.19-3.05.19-2.16,0-4.3-.35-6.43-1.05-2.13-.7-4.08-1.86-5.86-3.48-1.78-1.62-3.19-3.52-4.24-5.71-1.05-2.19-1.73-4.46-2.05-6.81-.13-1.02-.19-2.03-.19-3.05,0-1.9.29-4.03.86-6.38.57-2.35,1.67-4.71,3.29-7.1s3.62-4.44,6-6.19c2.38-1.75,5-2.97,7.86-3.67,2.1-.57,4.19-.86,6.29-.86,2.41,0,4.75.44,7,1.33,2.25.89,4.33,2.35,6.24,4.38,1.9,2.03,3.29,4.18,4.14,6.43.86,2.25,1.29,4.14,1.29,5.67ZM117.97,51.71c-.06-1.46-.4-2.7-1-3.71-.6-1.02-1.45-1.68-2.52-2-.64-.19-1.3-.29-2-.29-.32,0-.83.05-1.52.14-.7.1-1.52.37-2.48.81-.95.44-1.83,1.02-2.62,1.71-.79.7-1.38,1.52-1.76,2.48-.45,1.02-.67,2.03-.67,3.05,0,1.4.48,2.76,1.43,4.1.76,1.08,1.46,1.64,2.09,1.67.63.03,1.08.05,1.33.05.76,0,1.56-.06,2.38-.19,2.16-.32,3.92-1.22,5.29-2.71,1.36-1.49,2.05-3.19,2.05-5.1Z"/>
  <path class="cls-1" d="M161.02,25.33c1.71.06,3.36.22,4.95.48,1.59.25,3.14.73,4.67,1.43,1.52.64,2.86,1.52,4,2.67,1.14,1.14,2.01,2.41,2.62,3.81.6,1.4.95,2.89,1.05,4.48.1,1.59-.11,3.18-.62,4.76-.32.7-.68,1.35-1.1,1.95-.41.6-.97,1.1-1.67,1.48-1.27.76-2.51,1.05-3.71.86-1.21-.19-2.35-.67-3.43-1.43-1.84-1.33-3.37-2.82-4.57-4.48-.38-.51-.79-1-1.24-1.48-.44-.48-.92-.87-1.43-1.19-.95-.63-1.78-.79-2.48-.48-.7.32-1.11,1.05-1.24,2.19-.19,1.33-.02,2.52.52,3.57.54,1.05,1.35,1.95,2.43,2.71.89.64,1.79,1.24,2.71,1.81.92.57,1.82,1.14,2.71,1.71,1.14.83,2.22,1.7,3.24,2.62,1.02.92,1.94,1.95,2.76,3.1,1.21,1.65,2,3.4,2.38,5.24.38,1.84.32,3.78-.19,5.81-.38,1.65-.92,3.18-1.62,4.57-.7,1.4-1.65,2.73-2.86,4-.95,1.01-2.06,1.78-3.33,2.29-1.27.51-2.54.95-3.81,1.33-3.43,1.02-6.75,1.25-9.95.71-3.21-.54-6.33-1.73-9.38-3.57-1.65-1.08-3-2.4-4.05-3.95-1.05-1.56-1.67-3.35-1.86-5.38-.25-3.49,1.01-6.35,3.81-8.57,2.79-2.1,5.59-2.13,8.38-.1.57.32,1.08.7,1.52,1.14.44.44.86.92,1.24,1.43.51.57,1.05,1.11,1.62,1.62.57.51,1.21.92,1.91,1.24.38.19.78.35,1.19.48.41.13.87.13,1.38,0,.82-.19,1.4-.62,1.71-1.29.32-.67.29-1.38-.1-2.14-.25-.57-.6-1.05-1.05-1.43-.45-.38-.92-.73-1.43-1.05-.63-.32-1.25-.59-1.86-.81-.6-.22-1.22-.49-1.86-.81-1.59-.57-3.03-1.3-4.33-2.19-1.3-.89-2.59-1.87-3.86-2.95-1.27-1.14-2.24-2.38-2.9-3.71-.67-1.33-1.1-2.68-1.29-4.05-.19-1.36-.14-2.71.14-4.05.29-1.33.71-2.6,1.29-3.81.7-1.4,1.54-2.6,2.52-3.62.98-1.01,2.11-1.94,3.38-2.76,2.03-1.27,4.13-2.29,6.29-3.05,2.16-.76,4.41-1.14,6.76-1.14Z"/>
  <path class="cls-1" d="M188.73,42.67v-8.86c.06-1.02.02-1.62-.14-1.81-.16-.19-.71-.38-1.67-.57-.76-.13-1.52-.29-2.29-.48-.76-.19-1.52-.44-2.29-.76-.83-.32-1.6-.71-2.33-1.19s-1.38-1.06-1.95-1.76c-1.33-1.65-1.81-3.4-1.43-5.24.38-1.84,1.49-3.27,3.33-4.29.89-.51,1.78-.84,2.67-1,.89-.16,1.81-.3,2.76-.43.51-.06.98-.08,1.43-.05.44.03.92.02,1.43-.05.51,0,.91-.02,1.19-.05.29-.03.49-.13.62-.29.13-.16.22-.36.29-.62.06-.25.13-.63.19-1.14.19-1.33.41-2.63.67-3.9.25-1.27.63-2.51,1.14-3.71.38-1.01.84-1.95,1.38-2.81.54-.86,1.22-1.63,2.05-2.33,1.33-1.14,2.75-1.71,4.24-1.71s2.87.6,4.14,1.81c.76.7,1.38,1.48,1.86,2.33.48.86.87,1.76,1.19,2.71.76,2.41,1.24,4.83,1.43,7.24.06,1.14.67,1.81,1.81,2,.82.06,1.62.19,2.38.38s1.49.44,2.19.76c2.29.89,4.13,2.25,5.52,4.1,1.27,1.78,1.68,3.49,1.24,5.14-.45,1.65-1.65,2.95-3.62,3.9-1.14.57-2.33.98-3.57,1.24-1.24.25-2.49.45-3.76.57-.95.13-1.48.32-1.57.57-.09.25-.17.76-.24,1.52-.13,3.56-.29,7.08-.48,10.57-.19,3.49-.48,7.02-.86,10.57-.45,4.45-1.46,8.92-3.05,13.43-.32.7-.64,1.41-.95,2.14-.32.73-.73,1.41-1.24,2.05-2.03,2.73-4.35,2.98-6.95.76-.95-.82-1.73-1.76-2.33-2.81-.6-1.05-1.16-2.14-1.67-3.29-.7-1.71-1.22-3.46-1.57-5.24-.35-1.78-.62-3.59-.81-5.43-.57-4.51-.7-9.17-.38-14Z"/>
  <path class="cls-1" d="M246.06,70.76c-1.59,1.27-3.25,2.37-5,3.29-1.75.92-3.67,1.38-5.76,1.38s-4-.49-5.52-1.48c-1.52-.98-2.78-2.25-3.76-3.81-.98-1.55-1.75-3.29-2.29-5.19-.54-1.9-.91-3.75-1.1-5.52-.25-2.22-.41-4.48-.48-6.76-.06-2.29-.1-4.54-.1-6.76,0-1.33.16-2.97.48-4.9.32-1.94.84-3.78,1.57-5.52.73-1.75,1.7-3.25,2.9-4.52,1.21-1.27,2.7-1.9,4.48-1.9,1.46,0,2.59.46,3.38,1.38.79.92,1.41,2.05,1.86,3.38.44,1.33.73,2.71.86,4.14.13,1.43.19,2.65.19,3.67,0,2.54-.06,4.87-.19,7-.13,2.13-.19,4.08-.19,5.86v2.19c.06.64.11,1.27.14,1.9.03.64.14,1.24.33,1.81.57,1.65,1.46,2.48,2.67,2.48.63,0,1.33-.29,2.09-.86,1.08-.82,1.97-1.79,2.67-2.9.7-1.11,1.08-2.4,1.14-3.86.13-3.49.25-6.98.38-10.48.13-3.49.44-6.95.95-10.38.44-2.92,1.43-5.59,2.95-8,1.4-1.9,3.21-2.86,5.43-2.86h.76c1.27.13,2.25.64,2.95,1.52.7.89,1.24,1.94,1.62,3.14.38,1.27.62,2.57.71,3.9.09,1.33.21,2.7.33,4.1.13,2.92.19,5.81.19,8.67,0,.7-.02,2.13-.05,4.29-.03,2.16-.05,5.05-.05,8.67v9.43c0,3.11-.16,6.22-.48,9.33-.25,3.24-.75,6.52-1.48,9.86-.73,3.33-1.86,6.36-3.38,9.1-1.52,2.73-3.56,4.97-6.09,6.71-2.54,1.75-5.75,2.62-9.62,2.62-1.78,0-3.57-.27-5.38-.81-1.81-.54-3.51-1.38-5.1-2.52-1.59-1.14-3.02-2.59-4.29-4.33-1.27-1.75-2.29-3.86-3.05-6.33-.19-.7-.29-1.43-.29-2.19,0-.38.05-.97.14-1.76.1-.79.41-1.71.95-2.76.54-1.05,1.25-1.98,2.14-2.81.89-.83,1.84-1.43,2.86-1.81.95-.38,1.81-.57,2.57-.57,1.97,0,3.59,1.08,4.86,3.24l.76,1.52c.76,1.21,1.78,1.81,3.05,1.81.95,0,1.73-.35,2.33-1.05.6-.7,1.08-1.52,1.43-2.48.35-.95.62-1.94.81-2.95.19-1.02.32-1.87.38-2.57.13-.89.19-1.78.19-2.67s.03-1.9.09-3.05Z"/>
  <path class="cls-1" d="M320.16,31.71c.32-.44.54-.86.67-1.24.13-.38.25-.76.38-1.14.82-2.41,1.63-4.84,2.43-7.29.79-2.44,1.73-4.84,2.81-7.19.57-1.27,1.25-2.62,2.05-4.05.79-1.43,1.7-2.79,2.71-4.1,1.01-1.3,2.14-2.44,3.38-3.43,1.24-.98,2.59-1.63,4.05-1.95.51-.13,1.01-.19,1.52-.19.83,0,1.73.21,2.71.62.98.41,1.82,1.19,2.52,2.33.44.64.67,1.3.67,2,0,.25-.03.51-.1.76-1.78,7.81-3.41,15.6-4.9,23.38-1.49,7.78-3.32,15.51-5.48,23.19-.44,1.71-1.06,3.86-1.86,6.43-.79,2.57-1.79,5.05-3,7.43-1.21,2.38-2.67,4.43-4.38,6.14-1.71,1.71-3.75,2.57-6.09,2.57-1.33,0-2.57-.3-3.71-.9-1.14-.6-2.17-1.36-3.09-2.29-.92-.92-1.73-1.94-2.43-3.05-.7-1.11-1.3-2.21-1.81-3.29-1.33-2.86-2.43-5.79-3.29-8.81-.86-3.01-1.67-6.05-2.43-9.1-1.59-6.22-3.02-12.46-4.29-18.71-1.27-6.25-2.54-12.55-3.81-18.9-.06-.25-.13-.51-.19-.76l-.29-1.52c-.06-.25-.13-.51-.19-.76-.13-.51-.19-.98-.19-1.43s.1-.98.29-1.62c.19-.63.57-1.27,1.14-1.9.57-.63,1.22-1.11,1.95-1.43.73-.32,1.44-.48,2.14-.48.25,0,.51.03.76.1,1.33.19,2.6.67,3.81,1.43,1.21.76,2.32,1.67,3.33,2.71s1.92,2.19,2.71,3.43c.79,1.24,1.48,2.43,2.05,3.57,1.14,2.35,2.14,4.75,3,7.19.86,2.44,1.73,4.94,2.62,7.48.25.76.49,1.54.71,2.33.22.79.59,1.6,1.09,2.43Z"/>
  <path class="cls-1" d="M363.01,56.76c.06,2.16.06,4.22,0,6.19-.06,1.97-.32,3.9-.76,5.81-.19.83-.43,1.62-.71,2.38-.29.76-.68,1.49-1.19,2.19-.76,1.08-1.67,1.86-2.71,2.33-1.05.48-2.1.68-3.14.62-1.05-.06-2.03-.4-2.95-1-.92-.6-1.7-1.48-2.33-2.62-.57-.95-.95-1.9-1.14-2.86-.7-4.06-1.11-8.1-1.24-12.1-.13-4,.25-8,1.14-12,.38-1.78,1.01-3.59,1.9-5.43.25-.51.54-1.01.86-1.52.32-.51.7-.95,1.14-1.33,1.33-1.4,2.78-2.02,4.33-1.86,1.55.16,2.84,1.06,3.86,2.71.7,1.14,1.19,2.32,1.48,3.52.29,1.21.52,2.44.71,3.71.06.64.13,1.24.19,1.81.06.57.13,1.18.19,1.81.13,1.33.21,2.65.24,3.95.03,1.3.08,2.52.14,3.67ZM349.68,26.1c.13-2.67.95-4.82,2.48-6.48,1.46-1.46,3.05-2.02,4.76-1.67,1.71.35,2.92,1.51,3.62,3.48,1.14,3.3.57,6.35-1.71,9.14-.57.64-1.25,1.13-2.05,1.48-.79.35-1.59.51-2.38.48-.79-.03-1.57-.32-2.33-.86-.76-.54-1.37-1.38-1.81-2.52-.25-.51-.41-1.03-.48-1.57-.06-.54-.1-1.03-.1-1.48Z"/>
  <path class="cls-1" d="M390.16,36.86c.38-.19.65-.41.81-.67.16-.25.37-.51.62-.76,1.84-2.03,3.86-3.51,6.05-4.43,2.19-.92,4.62-1.06,7.29-.43,2.35.51,4.27,1.51,5.76,3,1.49,1.49,2.71,3.29,3.67,5.38.44,1.02.78,2.06,1,3.14.22,1.08.4,2.19.52,3.33.51,3.62.75,7.24.71,10.86-.03,3.62-.49,7.24-1.38,10.86-.19.7-.41,1.4-.67,2.1-.25.7-.57,1.4-.95,2.1-.7,1.33-1.6,2.33-2.71,3-1.11.67-2.27,1.03-3.48,1.1-1.21.06-2.4-.21-3.57-.81-1.18-.6-2.18-1.54-3-2.81-.57-.95-1-1.94-1.29-2.95-.29-1.01-.49-2.06-.62-3.14-.25-1.9-.37-3.81-.33-5.71.03-1.9.01-3.81-.05-5.71,0-1.27-.02-2.52-.05-3.76-.03-1.24-.18-2.49-.43-3.76-.06-.32-.11-.6-.14-.86-.03-.25-.11-.51-.24-.76-.45-1.46-1.11-2.3-2-2.52-.89-.22-1.87.18-2.95,1.19-1.78,1.65-2.6,3.71-2.48,6.19,0,1.59-.02,3.14-.05,4.67-.03,1.52-.11,3.08-.24,4.67-.13,1.46-.27,2.9-.43,4.33-.16,1.43-.33,2.87-.52,4.33-.38,2.29-1.46,4.19-3.24,5.71-.95.76-1.95,1.29-3,1.57s-2.06.32-3.05.1c-.98-.22-1.9-.67-2.76-1.33-.86-.67-1.54-1.57-2.05-2.71-.7-1.52-1.19-3.11-1.48-4.76-.29-1.65-.49-3.3-.62-4.95-.19-2.92-.33-5.81-.43-8.67-.09-2.86-.11-5.75-.05-8.67.06-1.52.16-3.06.29-4.62.13-1.56.35-3.1.67-4.62.38-1.78,1.27-3.43,2.67-4.95,2.48-2.48,5.3-3.17,8.48-2.1,1.52.44,2.65,1.24,3.38,2.38.73,1.14,1.25,2.48,1.57,4,.13.44.19.89.19,1.33s.19.83.57,1.14Z"/>
  <path class="cls-1" d="M424.63,42.67v-8.86c.06-1.02.02-1.62-.14-1.81-.16-.19-.71-.38-1.67-.57-.76-.13-1.52-.29-2.29-.48s-1.52-.44-2.29-.76c-.83-.32-1.6-.71-2.33-1.19s-1.38-1.06-1.95-1.76c-1.33-1.65-1.81-3.4-1.43-5.24.38-1.84,1.49-3.27,3.33-4.29.89-.51,1.78-.84,2.67-1,.89-.16,1.81-.3,2.76-.43.51-.06.98-.08,1.43-.05.44.03.92.02,1.43-.05.51,0,.9-.02,1.19-.05.29-.03.49-.13.62-.29.13-.16.22-.36.29-.62.06-.25.13-.63.19-1.14.19-1.33.41-2.63.67-3.9.25-1.27.63-2.51,1.14-3.71.38-1.01.84-1.95,1.38-2.81.54-.86,1.22-1.63,2.05-2.33,1.33-1.14,2.75-1.71,4.24-1.71s2.87.6,4.14,1.81c.76.7,1.38,1.48,1.86,2.33.48.86.87,1.76,1.19,2.71.76,2.41,1.24,4.83,1.43,7.24.06,1.14.67,1.81,1.81,2,.82.06,1.62.19,2.38.38s1.49.44,2.19.76c2.29.89,4.13,2.25,5.52,4.1,1.27,1.78,1.68,3.49,1.24,5.14-.45,1.65-1.65,2.95-3.62,3.9-1.14.57-2.33.98-3.57,1.24-1.24.25-2.49.45-3.76.57-.95.13-1.48.32-1.57.57-.1.25-.18.76-.24,1.52-.13,3.56-.29,7.08-.48,10.57-.19,3.49-.48,7.02-.86,10.57-.45,4.45-1.46,8.92-3.05,13.43-.32.7-.64,1.41-.95,2.14-.32.73-.73,1.41-1.24,2.05-2.03,2.73-4.35,2.98-6.95.76-.95-.82-1.73-1.76-2.33-2.81-.6-1.05-1.16-2.14-1.67-3.29-.7-1.71-1.22-3.46-1.57-5.24-.35-1.78-.62-3.59-.81-5.43-.57-4.51-.7-9.17-.38-14Z"/>
  <path class="cls-1" d="M494.54,48.38c0,3.62-.56,6.97-1.67,10.05-1.11,3.08-2.62,5.78-4.52,8.1-1.9,2.32-4.13,4.18-6.67,5.57-2.54,1.4-5.3,2.25-8.29,2.57-1.08.13-2.1.19-3.05.19-2.16,0-4.3-.35-6.43-1.05-2.13-.7-4.08-1.86-5.86-3.48-1.78-1.62-3.19-3.52-4.24-5.71-1.05-2.19-1.73-4.46-2.05-6.81-.13-1.02-.19-2.03-.19-3.05,0-1.9.29-4.03.86-6.38.57-2.35,1.67-4.71,3.29-7.1s3.62-4.44,6-6.19c2.38-1.75,5-2.97,7.86-3.67,2.09-.57,4.19-.86,6.29-.86,2.41,0,4.75.44,7,1.33,2.25.89,4.33,2.35,6.24,4.38,1.91,2.03,3.29,4.18,4.14,6.43.86,2.25,1.29,4.14,1.29,5.67ZM480.34,51.71c-.06-1.46-.4-2.7-1-3.71-.6-1.02-1.45-1.68-2.52-2-.64-.19-1.3-.29-2-.29-.32,0-.83.05-1.52.14-.7.1-1.52.37-2.48.81-.95.44-1.83,1.02-2.62,1.71-.79.7-1.38,1.52-1.76,2.48-.45,1.02-.67,2.03-.67,3.05,0,1.4.48,2.76,1.43,4.1.76,1.08,1.46,1.64,2.09,1.67.63.03,1.08.05,1.33.05.76,0,1.55-.06,2.38-.19,2.16-.32,3.92-1.22,5.29-2.71,1.37-1.49,2.05-3.19,2.05-5.1Z"/>
</svg>