<?xml version="1.0" encoding="UTF-8"?>
<svg id="Layer_1" data-name="Layer 1" xmlns="http://www.w3.org/2000/svg" version="1.1" viewBox="0 0 264 75">
  <defs>
    <style>
      .cls-1 {
        fill: #006837;
        stroke-width: 0px;
      }
    </style>
  </defs>
  <path class="cls-1" d="M14.61,10.79v33.75c0,7.69.15,13.04.44,16.07.23,2.31.61,3.72,1.15,4.23.54.5,2.1.87,4.69,1.1l3.14.24v3.08c-3.56-.23-6.77-.34-9.64-.34-1.99,0-6.56.11-13.7.34v-3.08h3.52c2.12,0,3.5-.29,4.15-.88s1.06-1.74,1.22-3.47c.36-3.58.54-8.45.54-14.6v-24.27c0-4.56-.05-9.07-.15-13.53-.07-1.89-.32-3.18-.76-3.88-.44-.7-1.08-1.33-1.93-1.88-.85-.55-2.03-.83-3.56-.83H.7V-.23C4.83,0,7.99.12,10.17.12,12.51.12,15.08,0,17.88-.23c3.22,3.94,6.26,7.77,9.11,11.5,2.85,3.73,5.8,7.48,8.86,11.25l16.7,20.51c6.02,7.36,10.37,12.47,13.04,15.33v-31.35c0-13.12-.24-20.29-.71-21.51-.47-1.22-2.35-1.99-5.64-2.32l-3.66-.34V-.23C60.82,0,64.89.12,67.79.12s6.93-.11,11.72-.34v3.08h-3.76c-3.03,0-4.77,1.01-5.22,3.03-.29,1.33-.44,8.46-.44,21.39v22.02c0,5.92.26,13,.78,21.24-4.43-.68-7-1.18-7.71-1.49s-1.4-.82-2.05-1.54c-3.61-4.01-7.41-8.45-11.38-13.33L14.61,10.79Z"/>
  <path class="cls-1" d="M155.53,10.32l-14.51,30.2c-5.44,11.34-9.9,21.24-13.39,29.71h-1.95c-1.21-2.9-4.66-10.35-10.36-22.34l-17.5-36.22v37.75c0,8.79.35,13.78,1.06,14.97.7,1.19,2.89,1.78,6.55,1.78h1.82v3.08c-4.54-.23-8.22-.34-11.06-.34-2.06,0-6.15.11-12.28.34v-3.08h3.17c2.15,0,3.58-.31,4.3-.93.72-.62,1.16-1.74,1.32-3.37.42-4.56.63-9.47.63-14.75v-27.64c0-6.67-.15-11.08-.44-13.23-.13-1.11-.61-1.95-1.44-2.54s-2.48-.88-4.96-.88h-2.59V-.23c5.67.23,9.23.34,10.7.34,1.86,0,4.49-.11,7.91-.34,3.94,8.76,8.49,18.42,13.64,28.97l12.85,26.43,11.87-24.48c4.17-8.57,8.92-18.87,14.27-30.93,4.07.23,6.93.34,8.59.34,1.92,0,5.39-.11,10.4-.34v3.08h-3.19c-2.88,0-4.64.5-5.28,1.49-.64.99-.96,4.57-.96,10.72v35.69c0,7.94.33,12.5,1.01,13.67.67,1.17,2.54,1.76,5.62,1.76h2.8v3.08c-4.52-.23-8.85-.34-12.99-.34-4.56,0-9.33.11-14.31.34v-3.08h3.22c2.57,0,4.13-.56,4.66-1.68s.81-5.95.81-14.48V10.32Z"/>
  <path class="cls-1" d="M197.18,36.05v16.77c0,6.66.36,10.55,1.07,11.68s2.54,1.68,5.47,1.68h3.47v3.08c-6.18-.23-11.12-.34-14.79-.34s-8.51.11-14.4.34v-3.08h3.91c2.8,0,4.52-.54,5.15-1.61.63-1.07.95-4.99.95-11.76V15.98c0-6.6-.35-10.44-1.05-11.51-.7-1.07-2.51-1.61-5.44-1.61h-3.52V-.23c5.4.23,10.27.34,14.6.34l28.08-.54c2.93,0,5.7.15,8.3.44-1.04,3.48-1.61,8.42-1.71,14.79h-3.12c-.2-3.39-.59-6.41-1.17-9.08-4.46-1.17-8.97-1.76-13.53-1.76-3.97,0-7.86.21-11.67.63-.39,4.23-.59,8.07-.59,11.52v15.53c1.95.1,3.87.15,5.76.15,4.88,0,9.16-.13,12.84-.39,1.24-.06,2.08-.33,2.51-.81.44-.47.81-1.73,1.1-3.78l.49-3.71h3.08c-.26,5.96-.39,9.78-.39,11.47l.05,11.52h-3.22v-3.76c0-2.99-.57-4.82-1.71-5.47-1.14-.65-5.5-.98-13.09-.98-2.08,0-4.56.05-7.42.15Z"/>
  <path class="cls-1" d="M241.9,59.17c-.93,2.27-1.4,4.8-1.4,7.6,0,1.87.42,3.35,1.25,4.45.83,1.1,2.02,1.65,3.55,1.65,6.07,0,11.57-5.7,16.5-17.1.47-1.07,1.03-1.53,1.7-1.4.27.07.4.23.4.5s-.75,2.02-2.25,5.25c-1.5,3.23-3.02,5.85-4.55,7.85-3.4,4.67-7.6,7-12.6,7-2.67,0-4.93-.87-6.8-2.6-1.87-1.73-2.8-4.1-2.8-7.1s.72-6.18,2.15-9.55c1.43-3.37,3.38-6.5,5.85-9.4,2.47-2.9,5.3-5.02,8.5-6.35,1.53-.67,3-1,4.4-1s2.7.4,3.9,1.2c1.13.93,1.7,1.97,1.7,3.1,0,4-2.4,7.83-7.2,11.5-1.47,1.13-3.54,2.15-6.2,3.05-2.67.9-4.7,1.35-6.1,1.35ZM258.7,43.17c0-1.33-.54-2-1.6-2-1.87,0-4.7,2.3-8.5,6.9-2.27,2.8-4.27,5.93-6,9.4,1.13,0,2.78-.4,4.95-1.2,2.17-.8,4.05-1.87,5.65-3.2,3.67-3.13,5.5-6.43,5.5-9.9Z"/>
</svg>