<?xml version="1.0" encoding="UTF-8"?>
<svg id="Layer_1" data-name="Layer 1" xmlns="http://www.w3.org/2000/svg" version="1.1" viewBox="0 0 259 94">
  <defs>
    <style>
      .cls-1 {
        fill: #174de3;
        stroke-width: 0px;
      }
    </style>
  </defs>
  <path class="cls-1" d="M-.03,10.44V2.44C-.03,1.78.19,1.24.62.84c.43-.4.98-.6,1.65-.6h50.9c.63,0,1.18.19,1.65.58.47.38.72.92.75,1.62v8c0,.67-.22,1.25-.65,1.75-.43.5-1.02.75-1.75.75h-18.4v59.25c0,.63-.22,1.17-.65,1.62-.43.45-1,.67-1.7.67h-9.1c-.63,0-1.17-.22-1.62-.65-.45-.43-.67-.98-.67-1.65V12.94H2.27c-.7,0-1.26-.22-1.68-.65-.42-.43-.62-1.05-.62-1.85Z"/>
  <path class="cls-1" d="M52.77,71.54V28.49c0-.93.32-1.64.95-2.12.63-.48,1.35-.73,2.15-.73h5.45c.6,0,1.13.21,1.6.62.47.42.81.87,1.02,1.35.22.48.52,1.25.92,2.3.4,1.05.73,1.88,1,2.48,1.3-2.4,2.7-4.25,4.2-5.55,1.5-1.3,3.45-1.95,5.85-1.95,2.63,0,4.73.32,6.3.95,1.57.63,3.58,1.85,6.05,3.65,1.07.57,1.6,1.33,1.6,2.3,0,.6-.2,1.25-.6,1.95l-3.5,5.5c-.5.87-1.15,1.42-1.95,1.67s-1.58.06-2.35-.57c-1.17-1.03-2.21-1.71-3.12-2.02-.92-.32-2.12-.48-3.62-.48-1.8,0-3.28.48-4.45,1.42-1.17.95-2.37,2.43-3.6,4.43v27.85c0,1.97-1.03,2.95-3.1,2.95h-7.8c-2,0-3-.98-3-2.95Z"/>
  <path class="cls-1" d="M96.97,11.54c0-2.23.77-4.14,2.33-5.72,1.55-1.58,3.46-2.38,5.73-2.38s4.17.79,5.7,2.38c1.53,1.58,2.3,3.49,2.3,5.72s-.77,4.12-2.3,5.65c-1.53,1.53-3.43,2.3-5.7,2.3s-4.18-.77-5.73-2.33c-1.55-1.55-2.33-3.42-2.33-5.62ZM112.12,28.14v43.6c0,.87-.26,1.54-.77,2.02-.52.48-1.23.73-2.12.73h-8.25c-1.83,0-2.75-.92-2.75-2.75V28.14c0-.8.25-1.47.75-2,.5-.53,1.17-.8,2-.8h8.25c.7,0,1.36.27,1.98.82.62.55.92,1.21.92,1.98Z"/>
  <path class="cls-1" d="M126.77,90.74V28.14c0-1.8.93-2.78,2.8-2.95h4.9c.87,0,1.52.03,1.97.1.45.07.92.29,1.4.68.48.38.82.98,1.02,1.77l.65,3.35c1.8-2.27,3.72-3.98,5.75-5.12,2.03-1.15,4.47-1.73,7.3-1.73,4.33,0,8.29,1.12,11.88,3.38,3.58,2.25,6.39,5.32,8.43,9.2,2.03,3.88,3.05,8.12,3.05,12.72,0,7.13-2.23,13.14-6.7,18.03-4.47,4.88-10.08,7.32-16.85,7.32-4.7,0-8.6-1.7-11.7-5.1v20.95c0,.9-.27,1.62-.82,2.15-.55.53-1.31.8-2.28.8h-7.55c-.9,0-1.67-.28-2.3-.83-.63-.55-.95-1.26-.95-2.12ZM139.32,49.29c0,3.5,1.12,6.49,3.35,8.98,2.23,2.48,4.9,3.73,8,3.73s5.69-1.23,7.88-3.67c2.18-2.45,3.27-5.41,3.27-8.88s-1.09-6.36-3.27-8.78c-2.18-2.42-4.81-3.62-7.88-3.62s-5.73,1.2-7.98,3.6-3.38,5.28-3.38,8.65Z"/>
  <path class="cls-1" d="M199.47,3.04v68.7c0,.87-.26,1.54-.77,2.02-.52.48-1.21.73-2.08.73h-8c-1.83,0-2.75-.92-2.75-2.75V3.04c0-.83.24-1.52.73-2.05.48-.53,1.16-.8,2.02-.8h8c.7,0,1.35.27,1.95.8.6.53.9,1.22.9,2.05Z"/>
  <path class="cls-1" d="M258.47,29.69l-24.15,61.85c-.9,1.5-1.97,2.25-3.2,2.25h-8.1c-1.83,0-2.75-.7-2.75-2.1,0-.53.07-.98.2-1.35l6-16.35-18.2-44.65h.05c-.3-.57-.45-1.13-.45-1.7,0-1.47.9-2.2,2.7-2.2h8.75c1.7,0,2.75.78,3.15,2.35v-.05l3.8,9.9c2,5.67,4.38,12.12,7.15,19.35l10.75-29.35c.57-1.47,1.67-2.2,3.3-2.2h8.65c1.87,0,2.8.82,2.8,2.45,0,.4-.15,1-.45,1.8Z"/>
</svg>