<?xml version="1.0" encoding="UTF-8"?>
<svg id="Layer_1" data-name="Layer 1" xmlns="http://www.w3.org/2000/svg" version="1.1" viewBox="0 0 678 90">
  <defs>
    <style>
      .cls-1 {
        fill: #000;
        stroke-width: 0px;
      }
    </style>
  </defs>
  <path class="cls-1" d="M-.08,64.85c-.1-1.17-.15-2.47-.15-3.91,2.12-3.03,6.64-9.05,13.57-18.07l2.98-3.81c.55-.62,1.33-1.64,2.34-3.08,1.5-2.15,3.46-4.73,5.88-7.74,2.42-3.01,5.53-7.14,9.3-12.38,1.59-2.18,2.88-3.91,3.86-5.18,1.4-1.76,2.38-3.06,2.93-3.91h-1.22l-4.25-.05c-3.64,0-8.05.24-13.21.71-5.16.47-8.62,1.03-10.37,1.68-1.33.49-2.47,1.17-3.42,2.05-1.86,1.69-3.14,3.09-3.86,4.2-.26.39-.5.77-.73,1.12-1.27.16-1.99.24-2.15.24-.29,0-.7-.06-1.22-.2C.4,15.29,1.83,9.61,4.5-.48l2.93-.2c1.04,2.31,1.74,3.6,2.1,3.86.68.49,1.9.73,3.66.73.33,0,.62-.02.88-.05h.34c2.6-.2,8.89-.52,18.85-.98,6.35-.29,11.28-.44,14.79-.44l3.66.1,6.25-.05c.06.72.11,1.38.15,2-.13.42-1.27,2.07-3.42,4.93-1.5,1.99-2.69,3.61-3.56,4.88l-2.25,3.22-.15.2-13.62,17.87-10.5,14.01c-2.93,3.84-5.4,7.21-7.42,10.11,2.02.36,4.56.54,7.62.54h3.32l2.1.1c3.94,0,7.13-.2,9.57-.59s4.5-1.03,6.18-1.9,3.21-2,4.59-3.37,3.25-3.82,5.59-7.37c1.07-.1,1.82-.15,2.25-.15h1.22l-.88,10.45v.44c0,.65-.23,3.08-.68,7.28l-19.58-.59c-1.66-.03-2.96-.05-3.91-.05h-5.66l-5.52-.05h-1.03l-13.38.39c-1.21.1-2.25.15-3.12.15-.78,0-1.64-.02-2.59-.05-1.3-.06-2.43-.1-3.37-.1Z"/>
  <path class="cls-1" d="M109.39,55.87l1.12.73c.29.23.47.5.54.83l.05.24c-.78,2.9-1.81,4.89-3.08,5.98-1.27,1.09-2.85,1.64-4.74,1.64s-3.57-.53-4.96-1.59c-1.38-1.06-2.64-2.92-3.78-5.59-1.4,2.47-3.37,4.34-5.91,5.59-2.54,1.25-5.65,1.88-9.33,1.88-3.39,0-5.88-.71-7.47-2.12s-2.39-3.28-2.39-5.59c0-1.07.24-2.16.71-3.27.47-1.11,1.24-2.21,2.29-3.3,1.06-1.09,2.76-2.29,5.1-3.59.36-.2,1.59-.75,3.71-1.66l12.16-4.88c.1-1.24.15-2.49.15-3.76,0-4.39-.54-7.39-1.61-8.98-.65-.98-1.79-1.46-3.42-1.46s-3.12.31-4.49.93c-1.37.62-2.36,1.42-2.98,2.39-.46.72-.85,2.07-1.17,4.05-.23,1.43-.44,2.26-.63,2.49-.49.62-1.38,1.18-2.66,1.68-1.29.5-2.16.87-2.61,1.1-1.76.85-3.16,1.27-4.2,1.27-.46-.39-.68-.94-.68-1.66,0-1.86.39-3.45,1.17-4.79,1.17-1.89,2.94-3.72,5.3-5.49,2.36-1.77,4.57-3.02,6.62-3.74,2.8-.91,6.22-1.37,10.25-1.37,2.6,0,4.84.48,6.71,1.44,1.87.96,3.17,2.38,3.91,4.27.73,1.89,1.1,5.29,1.1,10.21l-.1,8.06.1,5.91v1.51c0,1.37.18,2.3.55,2.81.37.5.84.76,1.42.76.35,0,.66-.1.91-.29l1.46-2.29.88-.34ZM93.37,44.54c-1.86.62-3.95,1.65-6.27,3.1-2.33,1.45-3.95,2.91-4.86,4.37-.65,1.07-.98,2.39-.98,3.96,0,1.4.42,2.56,1.27,3.47.85.91,1.82,1.37,2.93,1.37,1.82,0,3.37-.52,4.64-1.56,1.72-1.4,2.73-2.51,3.03-3.34s.44-3.18.44-7.06c0-1.43-.07-2.86-.2-4.3Z"/>
  <path class="cls-1" d="M111.39,25.69c1.14-.19,2.08-.29,2.83-.29.39,0,.83.02,1.32.05,2.96.2,5.37.29,7.23.29h2.54l6.93-.44c.26.2.49.41.68.63-.1,1.43-.18,2.34-.24,2.73-.49.1-.86.16-1.12.2-.75.1-1.3.19-1.66.27-.36.08-.75.15-1.17.22-.49.13-.77.36-.83.68.2.78.39,1.43.59,1.95l2.34,4.79c1.86,4.57,3.76,8.77,5.71,12.62l2.73,5.63c.2-.39,1.45-3.6,3.76-9.64,2.77-7.14,4.26-11.17,4.49-12.08.13-.49.2-.91.2-1.27,0-.32-.1-.86-.29-1.61-.72-.52-1.3-.85-1.76-1-.46-.15-1.51-.32-3.17-.51l-1.56-.39-.15-.67c-.03-.32-.05-.56-.05-.72,0-.26.05-.67.15-1.25.98-.06,1.68-.1,2.1-.1l3.96.24,2.64.1c1.11,0,3.03-.16,5.76-.49,1.69-.2,2.96-.31,3.81-.34.06.8.1,1.41.1,1.83,0,.19-.02.48-.05.87-.59.29-1.24.52-1.95.68-1.17.29-2.2.56-3.08.82-.47.39-.78.72-.94.98-.55,1.24-1.68,3.94-3.38,8.11l-3.52,9.43-8.17,19.45-5.63,12.9c-1.24,2.47-2.69,4.61-4.35,6.4-.62.68-1.33,1.2-2.15,1.56-1.33.52-2.85.78-4.54.78-.16,0-1.06-.11-2.69-.34-1.33-.33-2.49-1.03-3.47-2.1-.68-.78-1.03-1.61-1.03-2.49,0-1.79.76-3.45,2.29-4.98,1.37-.85,2.38-1.27,3.03-1.27,1.46,0,3.17.76,5.13,2.29.91.75,1.64,1.12,2.2,1.12s.99-.31,1.32-.93c2.83-5.5,4.65-9.41,5.47-11.72l-9.01-19.9c-3.38-7.98-5.96-13.57-7.74-16.77-.92-1.63-1.57-2.59-1.95-2.88-.38-.29-.96-.55-1.75-.78-.43-.1-.92-.29-1.48-.59-.16-.73-.31-1.44-.44-2.11Z"/>
  <path class="cls-1" d="M160.56,62.22c.59-.29,1.17-.49,1.76-.59s1.01-.18,1.27-.24c1.89-.19,2.98-.36,3.27-.49.23-.68.37-1.75.44-3.22l.29-20.62v-2.78l.05-2.1v-13.99c0-3.31-.11-5.7-.34-7.16-.03-.36-.15-.89-.34-1.61-.65-.55-1.29-.94-1.9-1.15-.62-.21-1.92-.43-3.91-.66-.03-.42-.05-.75-.05-.98,0-.36.03-.88.1-1.56,1.27-.42,4.84-1.42,10.71-2.98,1.62-.46,3.07-.96,4.33-1.51l1.99.1.1,21.64c0,.16-.05,1.2-.15,3.12-.03.68-.05,2.03-.05,4.05l-.1,7.31v6.97c1.63-.98,5.01-3.16,10.13-6.54,1.76-1.17,3.74-2.64,5.92-4.39.91-.71,1.57-1.29,2-1.74-.52-.23-1.02-.42-1.51-.55-1.23-.3-2.71-.8-4.43-1.5-.03-.45-.05-.78-.05-1.01,0-.32.05-.81.15-1.48l3.61-.05c.29,0,1.13.04,2.51.12,1.38.08,2.77.12,4.17.12,1.14,0,2.74-.07,4.8-.22,2.06-.15,3.34-.22,3.82-.22.52,0,1.3.03,2.34.1.03.36.05.62.05.78,0,.33-.07.78-.19,1.37l-3.85,1.24c-2.11.63-3.72,1.26-4.82,1.89-2.71,1.52-7.27,4.45-13.69,8.79.78.82,1.6,1.63,2.44,2.45l1.27,1.18,3.61,3.62,7.96,8.03,4.59,4.6c.68.48,2.03,1.16,4.04,2.05.03.93.05,1.47.05,1.64,0,.27-.02.66-.05,1.19-.36,0-1.41-.08-3.17-.24-1.01-.13-1.88-.2-2.63-.2-6.76,0-12.52.08-17.3.24,0-.5-.03-.88-.1-1.14l-.05-.74c0-.23.08-.6.24-1.09.81-.28,1.9-.47,3.26-.6.55-.03,1.15-.09,1.8-.18-.49-.88-1.09-1.69-1.8-2.44l-12.71-13.5-2.66,1.44v10.21c0,.29.03.83.1,1.61l.05,1.81c.65.44,1.16.73,1.51.85.55.19,1.59.36,3.12.52.42.03.81.09,1.17.19v1.26l.1.91c0,.17-.05.44-.15.81l-.34.15c-3-.11-5.37-.24-7.13-.38-.94-.07-1.69-.1-2.25-.1-.29,0-1.01.02-2.15.05h-2.78l-4.2.35-1.27-.04-2.88.13c-.13-.55-.2-1.06-.2-1.51,0-.36.02-.81.05-1.37Z"/>
  <path class="cls-1" d="M257.29,55.87l1.12.73c.29.23.47.5.54.83l.05.24c-.78,2.9-1.81,4.89-3.08,5.98-1.27,1.09-2.85,1.64-4.74,1.64s-3.57-.53-4.96-1.59c-1.38-1.06-2.64-2.92-3.78-5.59-1.4,2.47-3.37,4.34-5.91,5.59-2.54,1.25-5.65,1.88-9.33,1.88-3.39,0-5.88-.71-7.47-2.12s-2.39-3.28-2.39-5.59c0-1.07.24-2.16.71-3.27.47-1.11,1.24-2.21,2.29-3.3,1.06-1.09,2.76-2.29,5.1-3.59.36-.2,1.59-.75,3.71-1.66l12.16-4.88c.1-1.24.15-2.49.15-3.76,0-4.39-.54-7.39-1.61-8.98-.65-.98-1.79-1.46-3.42-1.46s-3.12.31-4.49.93c-1.37.62-2.36,1.42-2.98,2.39-.46.72-.85,2.07-1.17,4.05-.23,1.43-.44,2.26-.63,2.49-.49.62-1.38,1.18-2.66,1.68-1.29.5-2.16.87-2.61,1.1-1.76.85-3.16,1.27-4.2,1.27-.46-.39-.68-.94-.68-1.66,0-1.86.39-3.45,1.17-4.79,1.17-1.89,2.94-3.72,5.3-5.49,2.36-1.77,4.57-3.02,6.62-3.74,2.8-.91,6.22-1.37,10.25-1.37,2.6,0,4.84.48,6.71,1.44,1.87.96,3.17,2.38,3.91,4.27.73,1.89,1.1,5.29,1.1,10.21l-.1,8.06.1,5.91v1.51c0,1.37.18,2.3.55,2.81.37.5.84.76,1.42.76.35,0,.66-.1.91-.29l1.46-2.29.88-.34ZM241.27,44.54c-1.86.62-3.95,1.65-6.27,3.1-2.33,1.45-3.95,2.91-4.86,4.37-.65,1.07-.98,2.39-.98,3.96,0,1.4.42,2.56,1.27,3.47.85.91,1.82,1.37,2.93,1.37,1.82,0,3.37-.52,4.64-1.56,1.72-1.4,2.73-2.51,3.03-3.34s.44-3.18.44-7.06c0-1.43-.07-2.86-.2-4.3Z"/>
  <path class="cls-1" d="M263.73,40.24h15.38l7.81-.1c1.07,0,2.07.07,2.98.2.1,1.53.2,2.67.29,3.42l.05.83-.2,2.54c-.03.39-.05.88-.05,1.46v.88l-26.46.05c-.03-.94-.05-1.66-.05-2.15,0-.81.03-1.73.1-2.73.03-.52.05-.9.05-1.12l-.05-2.44.15-.83Z"/>
  <path class="cls-1" d="M297.57,39.14c.85-2.77,1.59-4.61,2.25-5.52,1.82-2.67,3.77-4.76,5.83-6.26,2.07-1.5,3.93-2.49,5.59-2.98,2.15-.62,3.89-.93,5.22-.93,3.06,0,5.53.24,7.42.71,1.89.47,3.47,1.15,4.74,2.02,1.82,1.27,3.29,2.55,4.39,3.85,1.11,1.3,2.01,2.83,2.71,4.58.7,1.76,1.08,3.89,1.15,6.39l-5.42-.09c-1.5,0-4.79-.14-9.86-.43-1.89-.16-3.19-.24-3.91-.24-.23,0-1.99.03-5.27.1h-4.2c-.07.46-.1.85-.1,1.17,0,1.73.21,3.55.63,5.46.42,1.91,1.06,3.59,1.9,5.04.85,1.45,1.9,2.7,3.15,3.74,1.25,1.04,2.55,1.79,3.88,2.25l2.83.93c2.51,0,4.18-.08,5.03-.24,1.56-.33,2.94-.74,4.13-1.25,1.19-.5,2.63-1.36,4.32-2.56,1.17.85,2.15,1.61,2.93,2.29-2.87,3.16-5.83,5.44-8.91,6.86s-6.52,2.12-10.33,2.12c-2.57,0-4.67-.23-6.3-.68-2.18-.59-4.15-1.48-5.91-2.69-1.76-1.21-3.27-2.7-4.54-4.5-1.27-1.79-2.21-3.63-2.83-5.52-.81-2.48-1.22-4.46-1.22-5.96,0-2.84.23-5.39.68-7.67ZM325.94,37.07c-.03-1.83-.39-3.58-1.07-5.25s-1.74-2.97-3.17-3.9c-1.43-.93-2.88-1.4-4.35-1.4-2.18,0-4.15.96-5.91,2.88-1.76,1.92-2.75,4.52-2.98,7.81l11.13.1c.72,0,1.72-.05,3.03-.15.94-.09,1.61-.13,2-.13.29,0,.73.01,1.32.04Z"/>
  <path class="cls-1" d="M343.96,40.24h15.38l7.81-.1c1.07,0,2.07.07,2.98.2.1,1.53.2,2.67.29,3.42l.05.83-.2,2.54c-.03.39-.05.88-.05,1.46v.88l-26.46.05c-.03-.94-.05-1.66-.05-2.15,0-.81.03-1.73.1-2.73.03-.52.05-.9.05-1.12l-.05-2.44.15-.83Z"/>
  <path class="cls-1" d="M377.16,65.44l.1-3.91c.78-.2,1.72-.37,2.83-.54,2.12-.29,3.84-.72,5.18-1.27.46-.75.75-1.46.88-2.15.26-1.82.39-4.51.39-8.06l-.1-20.75c0-2.15-.11-7.76-.34-16.85-.07-2.44-.23-3.96-.49-4.54-.1-.2-.26-.36-.49-.49-.52-.36-1.5-.57-2.93-.63-.62-.03-2.21-.21-4.79-.54l-.15-3.47,10.94-.24,15.97-.54,1.9-.05c.39-.03.78-.05,1.17-.05.33,0,1.19.02,2.59.05h3.12c2.47-.03,5.16.34,8.06,1.12,1.01.26,2.34.81,4,1.64s3.1,1.89,4.32,3.17c1.22,1.29,2.12,2.73,2.71,4.32.59,1.6.88,3.29.88,5.08,0,1.99-.44,3.77-1.32,5.35-.88,1.58-2.21,3.04-4,4.37-.91.65-3.01,1.73-6.3,3.22,4.92,1.11,8.66,3.13,11.23,6.08,2.57,2.95,3.86,6.23,3.86,9.84,0,2.15-.41,4.39-1.22,6.74-.59,1.76-1.58,3.39-2.98,4.88-1.86,1.99-3.82,3.48-5.88,4.49-2.07,1.01-4.92,1.84-8.57,2.49-1.82.33-4.59.49-8.3.49l-8.3-.2c-3.52,0-7.7.16-12.55.49-1.37.07-5.18.21-11.43.44ZM399.92,28.38c1.3.2,2.83.29,4.59.29,4.88,0,8.58-.9,11.08-2.71,2.51-1.81,3.76-4.92,3.76-9.35,0-3.12-1.19-5.73-3.56-7.81-2.38-2.08-5.96-3.12-10.74-3.12-1.37,0-3.19.18-5.47.54,0,.75.03,1.82.1,3.22.16,2.77.24,6.64.24,11.62l-.05,4.1c0,.72.02,1.79.05,3.22ZM400.5,59.48c2.12.88,4.08,1.32,5.91,1.32,3.71,0,6.74-.56,9.08-1.68s4.05-2.69,5.13-4.71c1.07-2.02,1.61-4.54,1.61-7.57s-.59-5.63-1.76-7.52c-1.63-2.6-3.6-4.35-5.91-5.25-2.31-.9-5.78-1.34-10.4-1.34-2.05,0-3.47.15-4.25.44v6.01l-.05,7.23.15,11.23c.03.52.2,1.14.49,1.86Z"/>
  <path class="cls-1" d="M443.18,61.97c.52-.13,1.97-.33,4.35-.59,1.04-.13,1.69-.36,1.95-.68.33-.49.49-1.64.49-3.47v-3.47l.15-3.66v-4l.05-.98-.05-2.44.1-.83.2-17.72v-1.37c0-6.05-.16-9.8-.49-11.23-.2-.85-.66-1.51-1.39-2s-2.45-.94-5.15-1.37v-1.03c0-.49.03-1.09.1-1.81l4.11-.88c.82-.23,1.6-.42,2.35-.59,1.83-.39,4.13-1.2,6.9-2.44.49-.29.95-.54,1.37-.73l2.65.2-.1,29.2c2.96-2.34,5.65-4,8.09-4.98,2.44-.98,4.97-1.46,7.6-1.46s4.67.45,6.51,1.34c1.83.9,3.26,2,4.26,3.32s1.72,2.92,2.15,4.81c.29,1.27.44,3.71.44,7.32v3.12l.05,6.88-.24,9.96c.13.29.28.49.44.59.39.16,1.35.39,2.88.68.88.16,1.56.31,2.05.44.26.49.39.87.39,1.16l-.05.39c-.07.36-.1.89-.1,1.6l-1.12.07c-.49,0-1.45-.06-2.88-.2-2.73-.26-5.03-.39-6.88-.39-1.21,0-2.82.07-4.83.2-1.43.07-3.26.1-5.47.1-.36,0-.68-.05-.98-.15v-1.17l-.1-.63c0-.26.08-.62.24-1.07.75-.36,1.62-.59,2.61-.71.99-.11,1.93-.24,2.81-.37.13-.62.21-1.01.24-1.17l.24-7.13v-11.96c0-3.55-.2-5.95-.59-7.2-.39-1.25-1.21-2.28-2.44-3.08-1.24-.8-2.73-1.2-4.49-1.2-2.05,0-4.04.48-5.98,1.44-1.94.96-3.59,2.09-4.96,3.39v8.54c0,4.69-.04,8.2-.12,10.55-.05,1.4-.08,2.28-.08,2.64,0,2.25.15,3.79.44,4.64.13.39.49.75,1.07,1.07,1.2.1,2.21.15,3,.17.8.02,1.44.09,1.93.22.06.8.1,1.36.1,1.68,0,.45-.07,1-.2,1.64l-5.43-.22c-2.05-.15-3.9-.22-5.53-.22l-6.85.34-4.8-.05c-.33-.46-.67-1.27-1.03-2.44v-.63Z"/>
  <path class="cls-1" d="M538.87,29.45c2.09,2.02,3.64,4.34,4.67,6.96,1.03,2.62,1.54,5.09,1.54,7.4,0,4.36-.67,7.88-2,10.55-2.02,4.04-4.74,7.02-8.16,8.94-3.42,1.92-7.4,2.88-11.93,2.88-5.08,0-9.39-1.14-12.93-3.42-3.54-2.28-6.06-4.87-7.58-7.76-1.51-2.9-2.27-6.49-2.27-10.79,0-2.18.36-4.37,1.08-6.57.72-2.2,1.7-4.11,2.96-5.74,1.25-1.63,2.63-2.99,4.13-4.1,2.18-1.56,4.37-2.68,6.57-3.34,2.2-.67,4.86-1,7.99-1,6.81,0,12.12,2,15.94,6.01ZM512.17,46.33c.29,4.04.5,6.37.63,6.99.42,2.18,1.09,4.06,2,5.62.62,1.01,1.64,1.91,3.08,2.69,1.43.78,3.14,1.17,5.13,1.17,2.38,0,4.38-.76,6.01-2.27,1.63-1.52,2.8-3.89,3.52-7.11.46-2.12.68-5.59.68-10.41,0-5.93-.98-10.13-2.93-12.59s-4.53-3.69-7.71-3.69c-2.51,0-4.58.7-6.23,2.1-1.64,1.4-2.79,3.47-3.44,6.21-.42,1.76-.67,5.53-.73,11.29Z"/>
  <path class="cls-1" d="M548.5,89.85v-2.2c.59-.36,1.01-.6,1.27-.73l3.76-1.37c1.56-.62,2.44-1.11,2.64-1.46.52-.98.75-2.7.68-5.17l-.34-19.42-.49-24.15c-.1-1.76-.47-3.01-1.12-3.76-.65-.75-2.38-1.53-5.18-2.34l-.05-2.54c3.19-.62,5.88-1.38,8.06-2.29,1.59-.65,3.76-1.89,6.49-3.71l2.49-.1.05,1.37-.05,5.27c0,.2.02.68.05,1.46,2.83-1.73,5.16-2.86,6.98-3.42,2.67-.78,5.62-1.17,8.84-1.17s6.27.85,8.84,2.54c.2.13.47.31.83.54,1.63,1.17,2.82,2.29,3.56,3.37,1.63,2.31,2.8,4.59,3.52,6.84.55,1.69.83,3.81.83,6.35,0,3.39-.44,6.25-1.32,8.59s-2.39,4.7-4.54,7.08c-2.15,2.38-4.45,4.07-6.91,5.08-2.46,1.01-5.04,1.51-7.74,1.51s-4.57-.16-5.71-.49c-2.18-.62-4.35-1.53-6.49-2.73-.1.52-.15.88-.15,1.07l.15,1.32c.03.36.05.8.05,1.32,0,.23-.03,1.51-.1,3.86l.2,8.89c0,.2-.03.85-.1,1.95v.54c0,1.2.08,2.08.26,2.64.14.33.42.68.87,1.07.33.13.63.28.93.44,1.01.2,1.9.39,2.66.59.76.2,1.57.36,2.42.49.29.36.44.83.44,1.42,0,.36-.02.88-.05,1.56h-.88c-1.89,0-3.21-.03-3.96-.1l-7.39-.63h-1.81l-1.71-.05-1.71.15-2.64.15c-.98.03-2.05.11-3.23.24-1.17.13-2.02.2-2.54.2l-.64-.05ZM566.97,54.94c.13.39.21.68.25.88.36,1.5.82,2.56,1.37,3.17,1.01,1.17,2.17,1.95,3.47,2.34,1.96.55,3.67.83,5.14.83,1.7,0,3.35-.36,4.97-1.07,1.62-.72,2.91-1.68,3.89-2.88.13-.16.33-.39.59-.68.23-.52.4-.91.54-1.17,1.3-2.54,1.95-5.24,1.95-8.11,0-5.27-1.57-9.72-4.7-13.33-2.19-2.57-5.29-3.86-9.3-3.86-2.38,0-5.09.62-8.12,1.86-.07,1.27-.1,4.83-.1,10.69l.1,9.42c0,.23-.01.86-.03,1.9Z"/>
  <path class="cls-1" d="M649.04,55.87l1.12.73c.29.23.47.5.54.83l.05.24c-.78,2.9-1.81,4.89-3.08,5.98-1.27,1.09-2.85,1.64-4.74,1.64s-3.57-.53-4.96-1.59c-1.38-1.06-2.64-2.92-3.78-5.59-1.4,2.47-3.37,4.34-5.91,5.59-2.54,1.25-5.65,1.88-9.33,1.88-3.39,0-5.88-.71-7.47-2.12s-2.39-3.28-2.39-5.59c0-1.07.24-2.16.71-3.27.47-1.11,1.24-2.21,2.29-3.3,1.06-1.09,2.76-2.29,5.1-3.59.36-.2,1.59-.75,3.71-1.66l12.16-4.88c.1-1.24.15-2.49.15-3.76,0-4.39-.54-7.39-1.61-8.98-.65-.98-1.79-1.46-3.42-1.46s-3.12.31-4.49.93c-1.37.62-2.36,1.42-2.98,2.39-.46.72-.85,2.07-1.17,4.05-.23,1.43-.44,2.26-.63,2.49-.49.62-1.38,1.18-2.66,1.68-1.29.5-2.16.87-2.61,1.1-1.76.85-3.16,1.27-4.2,1.27-.46-.39-.68-.94-.68-1.66,0-1.86.39-3.45,1.17-4.79,1.17-1.89,2.94-3.72,5.3-5.49,2.36-1.77,4.57-3.02,6.62-3.74,2.8-.91,6.22-1.37,10.25-1.37,2.6,0,4.84.48,6.71,1.44,1.87.96,3.17,2.38,3.91,4.27.73,1.89,1.1,5.29,1.1,10.21l-.1,8.06.1,5.91v1.51c0,1.37.18,2.3.55,2.81.37.5.84.76,1.42.76.35,0,.66-.1.91-.29l1.46-2.29.88-.34ZM633.02,44.54c-1.86.62-3.95,1.65-6.27,3.1-2.33,1.45-3.95,2.91-4.86,4.37-.65,1.07-.98,2.39-.98,3.96,0,1.4.42,2.56,1.27,3.47.85.91,1.82,1.37,2.93,1.37,1.82,0,3.37-.52,4.64-1.56,1.72-1.4,2.73-2.51,3.03-3.34s.44-3.18.44-7.06c0-1.43-.07-2.86-.2-4.3Z"/>
  <path class="cls-1" d="M652.11,62.87c.72-.5,1.67-.81,2.85-.94,2.26-.26,3.55-.6,3.88-1.02.65-.85.98-2.57.98-5.17v-13.76l-.1-3.27v-9.85l-.1-11.27v-1.95c0-2.67-.21-4.63-.64-5.9-1.15-.68-2.38-1.02-3.69-1.02-.79,0-1.53-.08-2.21-.24-.1-.81-.15-1.42-.15-1.81,0-.26.03-.55.1-.88,2.57-.29,5.23-.95,8-1.98,2.76-1.03,4.88-2.08,6.34-3.15l1.35-.05c.29,0,.71.02,1.26.05.19,11.25.29,18.96.29,23.13,0,1.24-.03,2.23-.1,2.98v.29l.1.93v21.61l.1,7.12v1.17c0,1.4.23,2.39.68,2.98.39.42,1.21.68,2.47.78.68.06,2.02.23,4.03.49.16.68.24,1.24.24,1.66,0,.33-.03.78-.1,1.37l-3.86-.18c-2.15-.15-4.85-.22-8.11-.22l-1.81-.04c-1.86,0-4.54.15-8.06.44h-3.56l-.2-2.28Z"/>
</svg>